Coordinates
version=1
nRows=6
nColumns=36
inDegrees=yes

Units are S.I. units (second, meters, Newtons, ...)
If the header above contains a line with 'inDegrees', this indicates whether rotational values are in degrees (yes) or radians (no).

endheader
time	pelvis_tilt	pelvis_list	pelvis_rotation	pelvis_tx	pelvis_ty	pelvis_tz	hip_flexion_r	hip_adduction_r	hip_rotation_r	knee_angle_r	knee_angle_r_beta	ankle_angle_r	subtalar_angle_r	mtp_angle_r	hip_flexion_l	hip_adduction_l	hip_rotation_l	knee_angle_l	knee_angle_l_beta	ankle_angle_l	subtalar_angle_l	mtp_angle_l	lumbar_extension	lumbar_bending	lumbar_rotation	arm_flex_r	arm_add_r	arm_rot_r	elbow_flex_r	pro_sup_r	arm_flex_l	arm_add_l	arm_rot_l	elbow_flex_l	pro_sup_l
      3.46250000	    -31.32051265	      1.12439082	      0.20675860	      0.33608251	      0.67752503	     -0.14055752	     87.54147202	    -13.14066838	     -2.20185191	     84.69295220	      1.47817087	     26.39110475	     -5.16024340	     -7.49999987	     88.31386481	    -10.81148341	     -3.41687132	     84.59419900	      1.47644730	     26.38344647	      5.90122196	     -7.49999987	    -29.03509048	     -2.66954582	      4.29158577	     91.79474739	     -4.93724719	     34.85500882	    129.51482410	    107.38201506	     90.79043052	     -3.71252209	     33.96926756	    127.76700326	    103.60261982
      3.46666670	    -31.31292264	      1.20161407	      0.14787471	      0.33490102	      0.67757927	     -0.14121157	     87.60576476	    -13.18397407	     -2.24461927	     84.75302229	      1.47921929	     26.29990113	     -5.36142911	     -7.49999987	     88.28699832	    -10.81772237	     -3.50858137	     84.61642370	      1.47683519	     26.35817382	      5.77918028	     -7.49999987	    -29.05491849	     -2.67344500	      4.19260605	     91.97010877	     -4.94658802	     35.06408805	    129.50114547	    107.42239963	     90.88384860	     -3.73455214	     33.94483485	    127.78449723	    103.63881242
      3.47083330	    -31.35476754	      1.26674470	      0.09393778	      0.33487709	      0.67836166	     -0.14151802	     87.57577054	    -13.18360387	     -2.18864160	     84.57546738	      1.47612037	     26.29178993	     -5.21976700	     -7.49999987	     88.26322739	    -10.80848735	     -3.61679212	     84.54799519	      1.47564089	     26.26407959	      5.74310793	     -7.49999987	    -29.01927137	     -2.66079841	      4.16210887	     91.94484013	     -5.12944749	     34.99087762	    129.50037397	    107.33314905	     90.82984245	     -3.68007916	     33.89963084	    127.69934715	    103.74944484
      3.47500000	    -31.39590891	      1.32017973	      0.03832829	      0.33441427	      0.67872089	     -0.14308365	     87.60755783	    -13.24402856	     -2.06816053	     84.44583227	      1.47385781	     26.23986124	     -5.09747376	     -7.49999987	     88.24619654	    -10.74926910	     -3.70483956	     84.47369700	      1.47434414	     26.35964966	      5.87038697	     -7.49999987	    -29.05604493	     -2.58649169	      4.08490189	     92.09679106	     -5.32515773	     35.06276320	    129.52369701	    105.25293011	     90.85041125	     -3.67618269	     33.88610713	    127.75473988	    101.81784266
      3.47916670	    -31.49229398	      1.36945926	      0.00195932	      0.33419619	      0.67848914	     -0.14284857	     87.67279277	    -13.26935257	     -1.93225330	     84.30857061	      1.47146214	     26.22947833	     -4.93005426	     -7.49999987	     88.29291102	    -10.68377990	     -3.80417032	     84.36079928	      1.47237371	     26.23613898	      5.57683280	     -7.49999987	    -28.90130309	     -2.60191150	      4.03719572	     92.11894359	     -5.42522097	     34.95445141	    129.44628847	    107.24394558	     90.82545348	     -3.50669071	     33.80691101	    127.50151038	    103.62849447
      3.48333330	    -31.51784888	      1.38489932	     -0.00705922	      0.33410747	      0.67946766	     -0.14283214	     87.58676561	    -13.28569380	     -1.86567006	     84.11706465	      1.46811974	     26.25194427	     -4.92122652	     -7.49999987	     88.23493456	    -10.64715494	     -3.89062798	     84.20873068	      1.46971961	     26.30424740	      5.55957222	     -7.49999987	    -28.92120354	     -2.53632111	      3.92036422	     92.21667189	     -5.47755627	     35.00346567	    129.50014330	    105.78700999	     90.85107282	     -3.54916455	     33.78380891	    127.57107005	    102.10002303
